<?xml version="1.0" encoding="UTF-8" standalone="no"?>
<svg
   xmlns:dc="http://purl.org/dc/elements/1.1/"
   xmlns:cc="http://creativecommons.org/ns#"
   xmlns:rdf="http://www.w3.org/1999/02/22-rdf-syntax-ns#"
   xmlns:svg="http://www.w3.org/2000/svg"
   xmlns="http://www.w3.org/2000/svg"
   xmlns:sodipodi="http://sodipodi.sourceforge.net/DTD/sodipodi-0.dtd"
   xmlns:inkscape="http://www.inkscape.org/namespaces/inkscape"
   version="1.1"
   width="436.79401mm"
   height="677.04797mm"
   viewBox="0 0 1547.6965 2398.9909"
   id="svg2"
   inkscape:version="0.91 r13725"
   sodipodi:docname="CoinRelayBox.svg">
  <metadata
     id="metadata32">
    <rdf:RDF>
      <cc:Work
         rdf:about="">
        <dc:format>image/svg+xml</dc:format>
        <dc:type
           rdf:resource="http://purl.org/dc/dcmitype/StillImage" />
        <dc:title></dc:title>
      </cc:Work>
    </rdf:RDF>
  </metadata>
  <defs
     id="defs30">
    <style
       id="style6">.a,.b{fill:none;}.a{stroke:#a52aff;stroke-miterlimit:10;stroke-width:0.5px;}.b{stroke:#000;stroke-linecap:round;stroke-linejoin:round;}</style>
  </defs>
  <sodipodi:namedview
     pagecolor="#ffffff"
     bordercolor="#666666"
     borderopacity="1"
     objecttolerance="10"
     gridtolerance="10"
     guidetolerance="10"
     inkscape:pageopacity="0"
     inkscape:pageshadow="2"
     inkscape:window-width="1882"
     inkscape:window-height="1028"
     id="namedview28"
     showgrid="false"
     inkscape:zoom="0.99140625"
     inkscape:cx="1249.6824"
     inkscape:cy="1253.377"
     inkscape:window-x="0"
     inkscape:window-y="0"
     inkscape:window-maximized="0"
     inkscape:current-layer="svg2"
     fit-margin-top="2"
     fit-margin-left="2"
     fit-margin-right="2"
     fit-margin-bottom="2"
     inkscape:document-units="mm" />
  <!-- Front-->
  <g
     transform="translate(7.5365594,7.5366205)"
     id="g4">
    <polygon
       style="fill:none;stroke:#000000;stroke-width:0.90000075"
       points="95.66937,0 124.65365,0 124.65365,10.346465 152.36233,10.346465 152.36233,0 181.34661,0 181.34661,10.346465 209.05529,10.346465 209.05529,0 238.03957,0 238.03957,10.346465 265.74825,10.346465 265.74825,0 294.73253,0 294.73253,10.346465 322.44121,10.346465 322.44121,0 351.42549,0 351.42549,10.346465 398.62237,10.346465 398.62237,0 447.09486,0 447.09486,46.700826 436.74839,46.700826 436.74839,92.12606 447.09486,92.12606 447.09486,121.11034 436.74839,121.11034 436.74839,148.81902 447.09486,148.81902 447.09486,177.8033 436.74839,177.8033 436.74839,205.51198 447.09486,205.51198 447.09486,234.49626 436.74839,234.49626 436.74839,262.20494 447.09486,262.20494 447.09486,291.18922 436.74839,291.18922 436.74839,318.8979 447.09486,318.8979 447.09486,347.88218 436.74839,347.88218 436.74839,375.59086 447.09486,375.59086 447.09486,404.57514 436.74839,404.57514 436.74839,432.28382 447.09486,432.28382 447.09486,461.2681 436.74839,461.2681 436.74839,488.97678 447.09486,488.97678 447.09486,517.96106 436.74839,517.96106 436.74839,545.66974 447.09486,545.66974 447.09486,574.65402 436.74839,574.65402 436.74839,602.3627 447.09486,602.3627 447.09486,631.34698 436.74839,631.34698 436.74839,659.05566 447.09486,659.05566 447.09486,688.03994 436.74839,688.03994 436.74839,715.74862 447.09486,715.74862 447.09486,744.7329 436.74839,744.7329 436.74839,772.44158 447.09486,772.44158 447.09486,801.42586 436.74839,801.42586 436.74839,829.13454 447.09486,829.13454 447.09486,858.11882 436.74839,858.11882 436.74839,885.8275 447.09486,885.8275 447.09486,914.81178 436.74839,914.81178 436.74839,942.52046 447.09486,942.52046 447.09486,971.50474 436.74839,971.50474 436.74839,999.21342 447.09486,999.21342 447.09486,1028.1977 436.74839,1028.1977 436.74839,1073.6229 447.09486,1073.6229 447.09486,1120.3238 398.62237,1120.3238 398.62237,1109.9773 351.42549,1109.9773 351.42549,1120.3238 322.44121,1120.3238 322.44121,1109.9773 294.73253,1109.9773 294.73253,1120.3238 265.74825,1120.3238 265.74825,1109.9773 238.03957,1109.9773 238.03957,1120.3238 209.05529,1120.3238 209.05529,1109.9773 181.34661,1109.9773 181.34661,1120.3238 152.36233,1120.3238 152.36233,1109.9773 124.65365,1109.9773 124.65365,1120.3238 95.66937,1120.3238 95.66937,1109.9773 48.472481,1109.9773 48.472481,1120.3238 0,1120.3238 0,1073.6229 10.346465,1073.6229 10.346465,1028.1977 0,1028.1977 0,999.21342 10.346465,999.21342 10.346465,971.50474 0,971.50474 0,942.52046 10.346465,942.52046 10.346465,914.81178 0,914.81178 0,885.8275 10.346465,885.8275 10.346465,858.11882 0,858.11882 0,829.13454 10.346465,829.13454 10.346465,801.42586 0,801.42586 0,772.44158 10.346465,772.44158 10.346465,744.7329 0,744.7329 0,715.74862 10.346465,715.74862 10.346465,688.03994 0,688.03994 0,659.05566 10.346465,659.05566 10.346465,631.34698 0,631.34698 0,602.3627 10.346465,602.3627 10.346465,574.65402 0,574.65402 0,545.66974 10.346465,545.66974 10.346465,517.96106 0,517.96106 0,488.97678 10.346465,488.97678 10.346465,461.2681 0,461.2681 0,432.28382 10.346465,432.28382 10.346465,404.57514 0,404.57514 0,375.59086 10.346465,375.59086 10.346465,347.88218 0,347.88218 0,318.8979 10.346465,318.8979 10.346465,291.18922 0,291.18922 0,262.20494 10.346465,262.20494 10.346465,234.49626 0,234.49626 0,205.51198 10.346465,205.51198 10.346465,177.8033 0,177.8033 0,148.81902 10.346465,148.81902 10.346465,121.11034 0,121.11034 0,92.12606 10.346465,92.12606 10.346465,46.700826 0,46.700826 0,0 48.472481,0 48.472481,10.346465 95.66937,10.346465 "
       id="polygon6" />
  </g>
  <!-- Back-->
  <g
     transform="translate(461.71809,7.5366205)"
     id="g8">
    <path
       style="fill:none;stroke:#000000;stroke-width:0.90000075"
       d="m 0,0 48.472481,0 0,10.346465 47.196889,0 0,-10.346465 28.98428,0 0,10.346465 27.70868,0 0,-10.346465 28.98428,0 0,10.346465 27.70868,0 0,-10.346465 28.98428,0 0,10.346465 27.70868,0 0,-10.346465 28.98428,0 0,10.346465 27.70868,0 0,-10.346465 28.98428,0 0,10.346465 47.19688,0 0,-10.346465 48.47249,0 0,46.700826 -10.34647,0 0,45.425234 10.34647,0 0,28.98428 -10.34647,0 0,27.70868 10.34647,0 0,28.98428 -10.34647,0 0,27.70868 10.34647,0 0,28.98428 -10.34647,0 0,27.70868 10.34647,0 0,28.98428 -10.34647,0 0,27.70868 10.34647,0 0,28.98428 -10.34647,0 0,27.70868 10.34647,0 0,28.98428 -10.34647,0 0,27.70868 10.34647,0 0,28.98428 -10.34647,0 0,27.70868 10.34647,0 0,28.98428 -10.34647,0 0,27.70868 10.34647,0 0,28.98428 -10.34647,0 0,27.70868 10.34647,0 0,28.98428 -10.34647,0 0,27.70868 10.34647,0 0,28.98428 -10.34647,0 0,27.70868 10.34647,0 0,28.98428 -10.34647,0 0,27.70868 10.34647,0 0,28.98428 -10.34647,0 0,27.70868 10.34647,0 0,25.44102 -52.34651,0 c 0,0 -21.25002,-2.68839 -20.00002,17.39765 1.25,20.08604 20.00002,17.39765 20.00002,17.39765 l 52.34651,0 0,25.44092 -10.34647,0 0,27.70868 10.34647,0 0,28.98428 -10.34647,0 0,27.70868 10.34647,0 0,28.98428 -10.34647,0 0,45.4252 10.34647,0 0,46.7009 -48.47249,0 0,-10.3465 -47.19688,0 0,10.3465 -28.98428,0 0,-10.3465 -27.70868,0 0,10.3465 -28.98428,0 0,-10.3465 -27.70868,0 0,10.3465 -28.98428,0 0,-10.3465 -27.70868,0 0,10.3465 -28.98428,0 0,-10.3465 -27.70868,0 0,10.3465 -28.98428,0 0,-10.3465 -47.196889,0 0,10.3465 -48.472481,0 0,-46.7009 10.346465,0 0,-45.4252 -10.346465,0 0,-28.98428 10.346465,0 0,-27.70868 -10.346465,0 0,-28.98428 10.346465,0 0,-27.70868 -10.346465,0 0,-28.98428 10.346465,0 0,-27.70868 -10.346465,0 0,-28.98428 10.346465,0 0,-27.70868 -10.346465,0 0,-28.98428 10.346465,0 0,-27.70868 -10.346465,0 0,-28.98428 10.346465,0 0,-27.70868 -10.346465,0 0,-28.98428 10.346465,0 0,-27.70868 -10.346465,0 0,-28.98428 10.346465,0 0,-27.70868 -10.346465,0 0,-28.98428 10.346465,0 0,-27.70868 -10.346465,0 0,-28.98428 10.346465,0 0,-27.70868 -10.346465,0 0,-28.98428 10.346465,0 0,-27.70868 -10.346465,0 0,-28.98428 10.346465,0 0,-27.70868 -10.346465,0 0,-28.98428 10.346465,0 0,-27.70868 -10.346465,0 0,-28.98428 10.346465,0 0,-27.70868 -10.346465,0 0,-28.98428 10.346465,0 0,-27.70868 -10.346465,0 0,-28.98428 10.346465,0 0,-27.70868 -10.346465,0 0,-28.98428 10.346465,0 0,-45.425234 -10.346465,0 z"
       id="polygon10"
       inkscape:connector-curvature="0"
       sodipodi:nodetypes="cccccccccccccccccccccccccccccccccccccccccccccccccccccccccccccccccccccccccccccccccccczccccccccccccccccccccccccccccccccccccccccccccccccccccccccccccccccccccccccccccccccccccccccccccccccccccccccccccccccc" />
  </g>
  <!-- Left-->
  <g
     transform="translate(915.89952,7.5366205)"
     id="g12">
    <polygon
       style="fill:none;stroke:#000000;stroke-width:0.90000075"
       points="70.8662,0 99.850476,0 99.850476,10.346465 127.55916,10.346465 127.55916,0 156.54344,0 156.54344,10.346465 184.25212,10.346465 184.25212,0 213.2364,0 213.2364,10.346465 240.94508,10.346465 240.94508,0 269.92936,0 269.92936,10.346465 297.63804,10.346465 297.63804,0 326.62232,0 326.62232,10.346465 354.331,10.346465 354.331,0 383.31528,0 383.31528,10.346465 411.02396,10.346465 411.02396,0 440.00824,0 440.00824,10.346465 467.71692,10.346465 467.71692,0 496.7012,0 496.7012,10.346465 524.40988,10.346465 524.40988,0 553.39416,0 553.39416,10.346465 588.18946,10.346465 588.18946,0 613.91389,0 613.91389,46.06303 624.26036,46.06303 624.26036,92.763856 613.91389,92.763856 613.91389,120.47254 624.26036,120.47254 624.26036,149.45682 613.91389,149.45682 613.91389,177.1655 624.26036,177.1655 624.26036,206.14978 613.91389,206.14978 613.91389,233.85846 624.26036,233.85846 624.26036,262.84274 613.91389,262.84274 613.91389,290.55142 624.26036,290.55142 624.26036,319.5357 613.91389,319.5357 613.91389,347.24438 624.26036,347.24438 624.26036,376.22866 613.91389,376.22866 613.91389,403.93734 624.26036,403.93734 624.26036,432.92162 613.91389,432.92162 613.91389,460.6303 624.26036,460.6303 624.26036,489.61458 613.91389,489.61458 613.91389,517.32326 624.26036,517.32326 624.26036,546.30754 613.91389,546.30754 613.91389,574.01622 624.26036,574.01622 624.26036,603.0005 613.91389,603.0005 613.91389,630.70918 624.26036,630.70918 624.26036,659.69346 613.91389,659.69346 613.91389,687.40214 624.26036,687.40214 624.26036,716.38642 613.91389,716.38642 613.91389,744.0951 624.26036,744.0951 624.26036,773.07938 613.91389,773.07938 613.91389,800.78806 624.26036,800.78806 624.26036,829.77234 613.91389,829.77234 613.91389,857.48102 624.26036,857.48102 624.26036,886.4653 613.91389,886.4653 613.91389,914.17398 624.26036,914.17398 624.26036,943.15826 613.91389,943.15826 613.91389,970.86694 624.26036,970.86694 624.26036,999.85122 613.91389,999.85122 613.91389,1027.5599 624.26036,1027.5599 624.26036,1074.2607 613.91389,1074.2607 613.91389,1120.3238 588.18946,1120.3238 588.18946,1109.9773 553.39416,1109.9773 553.39416,1120.3238 524.40988,1120.3238 524.40988,1109.9773 496.7012,1109.9773 496.7012,1120.3238 467.71692,1120.3238 467.71692,1109.9773 440.00824,1109.9773 440.00824,1120.3238 411.02396,1120.3238 411.02396,1109.9773 383.31528,1109.9773 383.31528,1120.3238 354.331,1120.3238 354.331,1109.9773 326.62232,1109.9773 326.62232,1120.3238 297.63804,1120.3238 297.63804,1109.9773 269.92936,1109.9773 269.92936,1120.3238 240.94508,1120.3238 240.94508,1109.9773 213.2364,1109.9773 213.2364,1120.3238 184.25212,1120.3238 184.25212,1109.9773 156.54344,1109.9773 156.54344,1120.3238 127.55916,1120.3238 127.55916,1109.9773 99.850476,1109.9773 99.850476,1120.3238 70.8662,1120.3238 70.8662,1109.9773 36.070896,1109.9773 36.070896,1120.3238 10.346465,1120.3238 10.346465,1074.2607 0,1074.2607 0,1027.5599 10.346465,1027.5599 10.346465,999.85122 0,999.85122 0,970.86694 10.346465,970.86694 10.346465,943.15826 0,943.15826 0,914.17398 10.346465,914.17398 10.346465,886.4653 0,886.4653 0,857.48102 10.346465,857.48102 10.346465,829.77234 0,829.77234 0,800.78806 10.346465,800.78806 10.346465,773.07938 0,773.07938 0,744.0951 10.346465,744.0951 10.346465,716.38642 0,716.38642 0,687.40214 10.346465,687.40214 10.346465,659.69346 0,659.69346 0,630.70918 10.346465,630.70918 10.346465,603.0005 0,603.0005 0,574.01622 10.346465,574.01622 10.346465,546.30754 0,546.30754 0,517.32326 10.346465,517.32326 10.346465,489.61458 0,489.61458 0,460.6303 10.346465,460.6303 10.346465,432.92162 0,432.92162 0,403.93734 10.346465,403.93734 10.346465,376.22866 0,376.22866 0,347.24438 10.346465,347.24438 10.346465,319.5357 0,319.5357 0,290.55142 10.346465,290.55142 10.346465,262.84274 0,262.84274 0,233.85846 10.346465,233.85846 10.346465,206.14978 0,206.14978 0,177.1655 10.346465,177.1655 10.346465,149.45682 0,149.45682 0,120.47254 10.346465,120.47254 10.346465,92.763856 0,92.763856 0,46.06303 10.346465,46.06303 10.346465,0 36.070896,0 36.070896,10.346465 70.8662,10.346465 "
       id="polygon14" />
  </g>
  <!-- Right-->
  <g
     transform="translate(915.89952,1134.947)"
     id="g16">
    <polygon
       style="fill:none;stroke:#000000;stroke-width:0.90000075"
       points="99.850476,0 99.850476,10.346465 127.55916,10.346465 127.55916,0 156.54344,0 156.54344,10.346465 184.25212,10.346465 184.25212,0 213.2364,0 213.2364,10.346465 240.94508,10.346465 240.94508,0 269.92936,0 269.92936,10.346465 297.63804,10.346465 297.63804,0 326.62232,0 326.62232,10.346465 354.331,10.346465 354.331,0 383.31528,0 383.31528,10.346465 411.02396,10.346465 411.02396,0 440.00824,0 440.00824,10.346465 467.71692,10.346465 467.71692,0 496.7012,0 496.7012,10.346465 524.40988,10.346465 524.40988,0 553.39416,0 553.39416,10.346465 588.18946,10.346465 588.18946,0 613.91389,0 613.91389,46.06303 624.26036,46.06303 624.26036,92.763856 613.91389,92.763856 613.91389,120.47254 624.26036,120.47254 624.26036,149.45682 613.91389,149.45682 613.91389,177.1655 624.26036,177.1655 624.26036,206.14978 613.91389,206.14978 613.91389,233.85846 624.26036,233.85846 624.26036,262.84274 613.91389,262.84274 613.91389,290.55142 624.26036,290.55142 624.26036,319.5357 613.91389,319.5357 613.91389,347.24438 624.26036,347.24438 624.26036,376.22866 613.91389,376.22866 613.91389,403.93734 624.26036,403.93734 624.26036,432.92162 613.91389,432.92162 613.91389,460.6303 624.26036,460.6303 624.26036,489.61458 613.91389,489.61458 613.91389,517.32326 624.26036,517.32326 624.26036,546.30754 613.91389,546.30754 613.91389,574.01622 624.26036,574.01622 624.26036,603.0005 613.91389,603.0005 613.91389,630.70918 624.26036,630.70918 624.26036,659.69346 613.91389,659.69346 613.91389,687.40214 624.26036,687.40214 624.26036,716.38642 613.91389,716.38642 613.91389,744.0951 624.26036,744.0951 624.26036,773.07938 613.91389,773.07938 613.91389,800.78806 624.26036,800.78806 624.26036,829.77234 613.91389,829.77234 613.91389,857.48102 624.26036,857.48102 624.26036,886.4653 613.91389,886.4653 613.91389,914.17398 624.26036,914.17398 624.26036,943.15826 613.91389,943.15826 613.91389,970.86694 624.26036,970.86694 624.26036,999.85122 613.91389,999.85122 613.91389,1027.5599 624.26036,1027.5599 624.26036,1074.2607 613.91389,1074.2607 613.91389,1120.3238 588.18946,1120.3238 588.18946,1109.9773 553.39416,1109.9773 553.39416,1120.3238 524.40988,1120.3238 524.40988,1109.9773 496.7012,1109.9773 496.7012,1120.3238 467.71692,1120.3238 467.71692,1109.9773 440.00824,1109.9773 440.00824,1120.3238 411.02396,1120.3238 411.02396,1109.9773 383.31528,1109.9773 383.31528,1120.3238 354.331,1120.3238 354.331,1109.9773 326.62232,1109.9773 326.62232,1120.3238 297.63804,1120.3238 297.63804,1109.9773 269.92936,1109.9773 269.92936,1120.3238 240.94508,1120.3238 240.94508,1109.9773 213.2364,1109.9773 213.2364,1120.3238 184.25212,1120.3238 184.25212,1109.9773 156.54344,1109.9773 156.54344,1120.3238 127.55916,1120.3238 127.55916,1109.9773 99.850476,1109.9773 99.850476,1120.3238 70.8662,1120.3238 70.8662,1109.9773 36.070896,1109.9773 36.070896,1120.3238 10.346465,1120.3238 10.346465,1074.2607 0,1074.2607 0,1027.5599 10.346465,1027.5599 10.346465,999.85122 0,999.85122 0,970.86694 10.346465,970.86694 10.346465,943.15826 0,943.15826 0,914.17398 10.346465,914.17398 10.346465,886.4653 0,886.4653 0,857.48102 10.346465,857.48102 10.346465,829.77234 0,829.77234 0,800.78806 10.346465,800.78806 10.346465,773.07938 0,773.07938 0,744.0951 10.346465,744.0951 10.346465,716.38642 0,716.38642 0,687.40214 10.346465,687.40214 10.346465,659.69346 0,659.69346 0,630.70918 10.346465,630.70918 10.346465,603.0005 0,603.0005 0,574.01622 10.346465,574.01622 10.346465,546.30754 0,546.30754 0,517.32326 10.346465,517.32326 10.346465,489.61458 0,489.61458 0,460.6303 10.346465,460.6303 10.346465,432.92162 0,432.92162 0,403.93734 10.346465,403.93734 10.346465,376.22866 0,376.22866 0,347.24438 10.346465,347.24438 10.346465,319.5357 0,319.5357 0,290.55142 10.346465,290.55142 10.346465,262.84274 0,262.84274 0,233.85846 10.346465,233.85846 10.346465,206.14978 0,206.14978 0,177.1655 10.346465,177.1655 10.346465,149.45682 0,149.45682 0,120.47254 10.346465,120.47254 10.346465,92.763856 0,92.763856 0,46.06303 10.346465,46.06303 10.346465,0 36.070896,0 36.070896,10.346465 70.8662,10.346465 70.8662,0 "
       id="polygon18" />
  </g>
  <!-- Top-->
  <g
     transform="translate(7.5365594,1134.947)"
     id="g20">
    <polygon
       style="fill:none;stroke:#000000;stroke-width:0.90000075"
       points="124.01585,10.346465 124.01585,0 153.00013,0 153.00013,10.346465 180.70881,10.346465 180.70881,0 209.69309,0 209.69309,10.346465 237.40177,10.346465 237.40177,0 266.38605,0 266.38605,10.346465 294.09473,10.346465 294.09473,0 323.07901,0 323.07901,10.346465 350.78769,10.346465 350.78769,0 399.26017,0 399.26017,10.346465 436.74839,10.346465 436.74839,35.4331 447.09486,35.4331 447.09486,71.503996 436.74839,71.503996 436.74839,99.21268 447.09486,99.21268 447.09486,128.19696 436.74839,128.19696 436.74839,155.90564 447.09486,155.90564 447.09486,184.88992 436.74839,184.88992 436.74839,212.5986 447.09486,212.5986 447.09486,241.58288 436.74839,241.58288 436.74839,269.29156 447.09486,269.29156 447.09486,298.27584 436.74839,298.27584 436.74839,325.98452 447.09486,325.98452 447.09486,354.9688 436.74839,354.9688 436.74839,382.67748 447.09486,382.67748 447.09486,411.66176 436.74839,411.66176 436.74839,439.37044 447.09486,439.37044 447.09486,468.35472 436.74839,468.35472 436.74839,496.0634 447.09486,496.0634 447.09486,525.04768 436.74839,525.04768 436.74839,552.75636 447.09486,552.75636 447.09486,588.82726 436.74839,588.82726 436.74839,613.91389 399.26017,613.91389 399.26017,624.26036 350.78769,624.26036 350.78769,613.91389 323.07901,613.91389 323.07901,624.26036 294.09473,624.26036 294.09473,613.91389 266.38605,613.91389 266.38605,624.26036 237.40177,624.26036 237.40177,613.91389 209.69309,613.91389 209.69309,624.26036 180.70881,624.26036 180.70881,613.91389 153.00013,613.91389 153.00013,624.26036 124.01585,624.26036 124.01585,613.91389 96.307166,613.91389 96.307166,624.26036 47.834685,624.26036 47.834685,613.91389 10.346465,613.91389 10.346465,588.82726 0,588.82726 0,552.75636 10.346465,552.75636 10.346465,525.04768 0,525.04768 0,496.0634 10.346465,496.0634 10.346465,468.35472 0,468.35472 0,439.37044 10.346465,439.37044 10.346465,411.66176 0,411.66176 0,382.67748 10.346465,382.67748 10.346465,354.9688 0,354.9688 0,325.98452 10.346465,325.98452 10.346465,298.27584 0,298.27584 0,269.29156 10.346465,269.29156 10.346465,241.58288 0,241.58288 0,212.5986 10.346465,212.5986 10.346465,184.88992 0,184.88992 0,155.90564 10.346465,155.90564 10.346465,128.19696 0,128.19696 0,99.21268 10.346465,99.21268 10.346465,71.503996 0,71.503996 0,35.4331 10.346465,35.4331 10.346465,10.346465 47.834685,10.346465 47.834685,0 96.307166,0 96.307166,10.346465 "
       id="polygon22" />
  </g>
  <!-- Bottom-->
  <g
     transform="translate(461.71809,1134.947)"
     id="g24">
    <polygon
       style="fill:none;stroke:#000000;stroke-width:0.90000075"
       points="96.307166,10.346465 124.01585,10.346465 124.01585,0 153.00013,0 153.00013,10.346465 180.70881,10.346465 180.70881,0 209.69309,0 209.69309,10.346465 237.40177,10.346465 237.40177,0 266.38605,0 266.38605,10.346465 294.09473,10.346465 294.09473,0 323.07901,0 323.07901,10.346465 350.78769,10.346465 350.78769,0 399.26017,0 399.26017,10.346465 436.74839,10.346465 436.74839,35.4331 447.09486,35.4331 447.09486,71.503996 436.74839,71.503996 436.74839,99.21268 447.09486,99.21268 447.09486,128.19696 436.74839,128.19696 436.74839,155.90564 447.09486,155.90564 447.09486,184.88992 436.74839,184.88992 436.74839,212.5986 447.09486,212.5986 447.09486,241.58288 436.74839,241.58288 436.74839,269.29156 447.09486,269.29156 447.09486,298.27584 436.74839,298.27584 436.74839,325.98452 447.09486,325.98452 447.09486,354.9688 436.74839,354.9688 436.74839,382.67748 447.09486,382.67748 447.09486,411.66176 436.74839,411.66176 436.74839,439.37044 447.09486,439.37044 447.09486,468.35472 436.74839,468.35472 436.74839,496.0634 447.09486,496.0634 447.09486,525.04768 436.74839,525.04768 436.74839,552.75636 447.09486,552.75636 447.09486,588.82726 436.74839,588.82726 436.74839,613.91389 399.26017,613.91389 399.26017,624.26036 350.78769,624.26036 350.78769,613.91389 323.07901,613.91389 323.07901,624.26036 294.09473,624.26036 294.09473,613.91389 266.38605,613.91389 266.38605,624.26036 237.40177,624.26036 237.40177,613.91389 209.69309,613.91389 209.69309,624.26036 180.70881,624.26036 180.70881,613.91389 153.00013,613.91389 153.00013,624.26036 124.01585,624.26036 124.01585,613.91389 96.307166,613.91389 96.307166,624.26036 47.834685,624.26036 47.834685,613.91389 10.346465,613.91389 10.346465,588.82726 0,588.82726 0,552.75636 10.346465,552.75636 10.346465,525.04768 0,525.04768 0,496.0634 10.346465,496.0634 10.346465,468.35472 0,468.35472 0,439.37044 10.346465,439.37044 10.346465,411.66176 0,411.66176 0,382.67748 10.346465,382.67748 10.346465,354.9688 0,354.9688 0,325.98452 10.346465,325.98452 10.346465,298.27584 0,298.27584 0,269.29156 10.346465,269.29156 10.346465,241.58288 0,241.58288 0,212.5986 10.346465,212.5986 10.346465,184.88992 0,184.88992 0,155.90564 10.346465,155.90564 10.346465,128.19696 0,128.19696 0,99.21268 10.346465,99.21268 10.346465,71.503996 0,71.503996 0,35.4331 10.346465,35.4331 10.346465,10.346465 47.834685,10.346465 47.834685,0 96.307166,0 "
       id="polygon26" />
  </g>
  <g
     id="g4548"
     transform="translate(-1689.8782,53.036659)">
    <rect
       y="2070.9258"
       x="1930.2314"
       height="99.845329"
       width="202.60115"
       id="rect4386"
       style="opacity:1;fill:none;fill-opacity:1;stroke:#000000;stroke-width:0.93350255;stroke-miterlimit:4;stroke-dasharray:none;stroke-opacity:1" />
    <rect
       style="opacity:1;fill:none;fill-opacity:1;stroke:#000000;stroke-width:0.90000075;stroke-miterlimit:4;stroke-dasharray:none;stroke-opacity:1"
       id="rect4380"
       width="178.05118"
       height="68.208664"
       x="1942.5065"
       y="2086.7441" />
    <ellipse
       style="opacity:1;fill:none;fill-opacity:1;stroke:#000000;stroke-width:0.90000081;stroke-miterlimit:4;stroke-dasharray:none;stroke-opacity:1"
       id="ellipse4382"
       cx="1955.0005"
       cy="2080.4365"
       rx="3.6358593"
       ry="3.6358595" />
    <ellipse
       ry="3.6358595"
       rx="3.6358593"
       cy="2080.4365"
       cx="2108.0645"
       id="ellipse4384"
       style="opacity:1;fill:none;fill-opacity:1;stroke:#000000;stroke-width:0.90000081;stroke-miterlimit:4;stroke-dasharray:none;stroke-opacity:1" />
    <ellipse
       ry="3.6358607"
       rx="3.6358402"
       cy="2161.2595"
       cx="1955.0005"
       id="ellipse4388"
       style="opacity:1;fill:none;fill-opacity:1;stroke:#000000;stroke-width:0.90000081;stroke-miterlimit:4;stroke-dasharray:none;stroke-opacity:1" />
    <ellipse
       style="opacity:1;fill:none;fill-opacity:1;stroke:#000000;stroke-width:0.90000081;stroke-miterlimit:4;stroke-dasharray:none;stroke-opacity:1"
       id="ellipse4390"
       cx="2108.0635"
       cy="2161.2595"
       rx="3.6358402"
       ry="3.6358607" />
  </g>
  <g
     id="g4455"
     transform="translate(-1800.4481,-14.963398)">
    <rect
       style="opacity:1;fill:none;fill-opacity:1;stroke:#000000;stroke-width:0.90000075;stroke-miterlimit:4;stroke-dasharray:none;stroke-opacity:1"
       id="rect4457"
       width="178.05118"
       height="68.208664"
       x="1942.5065"
       y="75.742363" />
    <g
       id="g4459"
       transform="translate(1816.2728,25.414238)"
       style="stroke-width:0.90000075;stroke-miterlimit:4;stroke-dasharray:none">
      <circle
         class="b"
         cx="308.28424"
         cy="183.06131"
         r="7.9750004"
         id="circle4461"
         style="fill:none;stroke:#000000;stroke-width:0.90000075;stroke-linecap:round;stroke-linejoin:round;stroke-miterlimit:4;stroke-dasharray:none" />
      <circle
         class="b"
         cx="122.23418"
         cy="183.06131"
         r="7.9750004"
         id="circle4463"
         style="fill:none;stroke:#000000;stroke-width:0.90000075;stroke-linecap:round;stroke-linejoin:round;stroke-miterlimit:4;stroke-dasharray:none" />
      <circle
         class="b"
         cx="122.23418"
         cy="546.37384"
         r="7.9750004"
         id="circle4465"
         style="fill:none;stroke:#000000;stroke-width:0.90000075;stroke-linecap:round;stroke-linejoin:round;stroke-miterlimit:4;stroke-dasharray:none" />
      <circle
         class="b"
         cx="308.28424"
         cy="546.37384"
         r="7.9750004"
         id="circle4467"
         style="fill:none;stroke:#000000;stroke-width:0.90000075;stroke-linecap:round;stroke-linejoin:round;stroke-miterlimit:4;stroke-dasharray:none" />
    </g>
    <polygon
       transform="matrix(1.25,0,0,1.25,1632.1694,121.27557)"
       style="fill:none;stroke:#000000;stroke-linecap:round;stroke-linejoin:round"
       id="polygon4469"
       points="404.35,237.14 383.27,237.14 383.27,58.66 255.71,58.66 255.71,370.47 383.27,370.47 383.27,316.2 383.27,316.2 404.35,316.2 "
       class="b" />
    <rect
       style="opacity:1;fill:none;fill-opacity:1;stroke:#ff0101;stroke-width:0.90000075;stroke-miterlimit:4;stroke-dasharray:none;stroke-opacity:1"
       id="rect4471"
       width="226.77165"
       height="442.91339"
       x="1918.1462"
       y="168.67511" />
    <ellipse
       ry="3.6358595"
       rx="3.6358593"
       cy="69.434746"
       cx="1955.0005"
       id="ellipse4473"
       style="opacity:1;fill:none;fill-opacity:1;stroke:#000000;stroke-width:0.90000081;stroke-miterlimit:4;stroke-dasharray:none;stroke-opacity:1" />
    <ellipse
       style="opacity:1;fill:none;fill-opacity:1;stroke:#000000;stroke-width:0.90000081;stroke-miterlimit:4;stroke-dasharray:none;stroke-opacity:1"
       id="ellipse4475"
       cx="2108.0645"
       cy="69.434746"
       rx="3.6358593"
       ry="3.6358595" />
    <ellipse
       style="opacity:1;fill:none;fill-opacity:1;stroke:#000000;stroke-width:0.90000081;stroke-miterlimit:4;stroke-dasharray:none;stroke-opacity:1"
       id="ellipse4477"
       cx="1955.0005"
       cy="150.25774"
       rx="3.6358402"
       ry="3.6358607" />
    <ellipse
       ry="3.6358607"
       rx="3.6358402"
       cy="150.25774"
       cx="2108.0635"
       id="ellipse4479"
       style="opacity:1;fill:none;fill-opacity:1;stroke:#000000;stroke-width:0.90000081;stroke-miterlimit:4;stroke-dasharray:none;stroke-opacity:1" />
    <rect
       style="opacity:1;fill:none;fill-opacity:1;stroke:#ff0101;stroke-width:0.90000069;stroke-miterlimit:4;stroke-dasharray:none;stroke-opacity:1"
       id="rect4481"
       width="218.43686"
       height="105.05095"
       x="1922.3136"
       y="57.32122"
       rx="8.7374744" />
  </g>
  <rect
     rx="14.173228"
     y="1010.7151"
     x="630.3443"
     height="77.952827"
     width="109.84252"
     id="rect4483"
     style="opacity:1;fill:none;fill-opacity:1;stroke:#000000;stroke-width:0.90000075;stroke-miterlimit:4;stroke-dasharray:none;stroke-opacity:1" />
  <g
     id="g4485"
     transform="translate(7.5365594,-304.27472)">
    <path
       style="fill:none;stroke:#000000;stroke-width:0.90000075"
       d="m 398.62237,1120.3238 0,-10.3465 -47.19688,0 0,10.3465 z m -76.18116,0 0,-10.3465 -27.70868,0 0,10.3465 z m -56.69296,0 0,-10.3465 -27.70868,0 0,10.3465 z m -56.69296,0 0,-10.3465 -27.70868,0 0,10.3465 z m -56.69296,0 0,-10.3465 -27.70868,0 0,10.3465 z m -56.69296,0 0,-10.3465 -47.196889,0 0,10.3465 z"
       id="polygon4487"
       inkscape:connector-curvature="0"
       sodipodi:nodetypes="cccccccccccccccccccccccccccccc" />
  </g>
  <g
     transform="translate(461.7181,-304.27472)"
     id="g4490">
    <path
       sodipodi:nodetypes="cccccccccccccccccccccccccccccc"
       inkscape:connector-curvature="0"
       id="path4492"
       d="m 398.62237,1120.3238 0,-10.3465 -47.19688,0 0,10.3465 z m -76.18116,0 0,-10.3465 -27.70868,0 0,10.3465 z m -56.69296,0 0,-10.3465 -27.70868,0 0,10.3465 z m -56.69296,0 0,-10.3465 -27.70868,0 0,10.3465 z m -56.69296,0 0,-10.3465 -27.70868,0 0,10.3465 z m -56.69296,0 0,-10.3465 -47.196889,0 0,10.3465 z"
       style="fill:none;stroke:#000000;stroke-width:0.90000075" />
  </g>
  <g
     id="g4494"
     transform="translate(915.89952,-304.27472)">
    <path
       style="fill:none;stroke:#000000;stroke-width:0.90000075"
       d="m 588.18946,1120.3238 0,-10.3465 -34.7953,0 0,10.3465 z m -63.77958,0 0,-10.3465 -27.70868,0 0,10.3465 z m -56.69296,0 0,-10.3465 -27.70868,0 0,10.3465 z m -56.69296,0 0,-10.3465 -27.70868,0 0,10.3465 z m -56.69296,0 0,-10.3465 -27.70868,0 0,10.3465 z m -56.69296,0 0,-10.3465 -27.70868,0 0,10.3465 z m -56.69296,0 0,-10.3465 -27.70868,0 0,10.3465 z m -56.69296,0 0,-10.3465 -27.70868,0 0,10.3465 z m -56.69296,0 0,-10.3465 -27.708684,0 0,10.3465 z m -56.69296,0 0,-10.3465 -34.795304,0 0,10.3465 z"
       id="polygon4496"
       inkscape:connector-curvature="0"
       sodipodi:nodetypes="cccccccccccccccccccccccccccccccccccccccccccccccccc" />
  </g>
  <g
     id="g4499"
     transform="translate(461.7181,-913.69208)">
    <path
       style="fill:none;stroke:#000000;stroke-width:0.90000075"
       d="m 398.62237,1120.3238 0,-10.3465 -47.19688,0 0,10.3465 z m -76.18116,0 0,-10.3465 -27.70868,0 0,10.3465 z m -56.69296,0 0,-10.3465 -27.70868,0 0,10.3465 z m -56.69296,0 0,-10.3465 -27.70868,0 0,10.3465 z m -56.69296,0 0,-10.3465 -27.70868,0 0,10.3465 z m -56.69296,0 0,-10.3465 -47.196889,0 0,10.3465 z"
       id="path4501"
       inkscape:connector-curvature="0"
       sodipodi:nodetypes="cccccccccccccccccccccccccccccc" />
  </g>
  <g
     transform="translate(915.89952,-913.69208)"
     id="g4503">
    <path
       sodipodi:nodetypes="cccccccccccccccccccc"
       inkscape:connector-curvature="0"
       id="path4505"
       d="m 588.18946,1120.3238 0,-10.3465 -34.7953,0 0,10.3465 z m -63.77958,0 0,-10.3465 -27.70868,0 0,10.3465 z m -56.69296,0 0,-10.3465 -27.70868,0 0,10.3465 z m -56.69296,0 0,-10.3465 -27.70868,0 0,10.3465 z"
       style="fill:none;stroke:#000000;stroke-width:0.90000075" />
  </g>
  <g
     id="g4511"
     transform="translate(461.71809,1767.194)">
    <path
       style="fill:none;stroke:#000000;stroke-width:0.90000075"
       d="m 96.307166,10.346465 27.708684,0 0,-10.346465 28.98428,0 0,10.346465 27.70868,0 0,-10.346465 28.98428,0 0,10.346465 27.70868,0 0,-10.346465 28.98428,0 0,10.346465 27.70868,0 0,-10.346465 28.98428,0 0,10.346465 27.70868,0 0,-10.346465 48.47248,0 0,10.346465 37.48822,0 0,25.086635 10.34647,0 0,36.070896 -10.34647,0 0,27.708684 10.34647,0 0,28.98428 -10.34647,0 0,27.70868 10.34647,0 0,28.98428 -10.34647,0 0,27.70868 10.34647,0 0,28.98428 -10.34647,0 0,27.70868 10.34647,0 0,28.98428 -10.34647,0 0,27.70868 10.34647,0 0,28.98428 -10.34647,0 0,27.70868 10.34647,0 0,28.98428 -10.34647,0 0,27.70868 10.34647,0 0,28.98428 -10.34647,0 0,27.70868 10.34647,0 0,28.98428 -10.34647,0 0,27.70868 10.34647,0 0,36.0709 -10.34647,0 0,25.08663 -37.48822,0 0,10.34647 -48.47248,0 0,-10.34647 -27.70868,0 0,10.34647 -28.98428,0 0,-10.34647 -27.70868,0 0,10.34647 -28.98428,0 0,-10.34647 -27.70868,0 0,10.34647 -28.98428,0 0,-10.34647 -27.70868,0 0,10.34647 -28.98428,0 0,-10.34647 -27.708684,0 0,10.34647 -48.472481,0 0,-10.34647 -37.48822,0 0,-589.394149 16.458624,0 -3.54331,21.259861 31.659476,0 L 47.83466,24.519741 47.834685,0 96.307166,0 Z"
       id="polygon4513"
       inkscape:connector-curvature="0"
       sodipodi:nodetypes="cccccccccccccccccccccccccccccccccccccccccccccccccccccccccccccccccccccccccccccccccccccccccccccccc" />
  </g>
  <g
     transform="translate(7.5365594,1767.194)"
     id="g4535">
    <path
       sodipodi:nodetypes="cccccccccccccccccccccccccccccccccccccccccccccccccccccccccccccccccccccccc"
       inkscape:connector-curvature="0"
       id="path4537"
       d="m 96.307166,10.346465 27.708684,0 0,-10.346465 28.98428,0 0,10.346465 27.70868,0 0,-10.346465 28.98428,0 0,10.346465 27.70868,0 0,-10.346465 28.98428,0 0,10.346465 27.70868,0 0,-10.346465 28.98428,0 0,10.346465 27.70868,0 0,-10.346465 48.47248,0 0,10.346465 37.48822,0 0,25.086635 10.34647,0 0,36.070896 -10.34647,0 0,27.708684 10.34647,0 0,28.98428 -10.34647,0 0,27.70868 10.34647,0 0,28.98428 -10.34647,0 0,27.70868 10.34647,0 0,28.98428 -10.34647,0 0,27.88628 -37.48822,0 0,10.34647 -48.47248,0 0,-10.34647 -27.70868,0 0,10.34647 -28.98428,0 0,-10.34647 -27.70868,0 0,10.34647 -28.98428,0 0,-10.34647 -27.70868,0 0,10.34647 -28.98428,0 0,-10.34647 -27.70868,0 0,10.34647 -28.98428,0 0,-10.34647 -27.708684,0 0,10.34647 -48.472481,0 0,-10.34647 -37.48822,0 0,-244.949419 16.458624,0 -3.54331,21.259861 31.659476,0 L 47.83466,24.519741 47.834685,0 96.307166,0 Z"
       style="fill:none;stroke:#000000;stroke-width:0.90000075" />
  </g>
  <g
     id="g4543"
     transform="translate(7.5365594,1271.1306)">
    <path
       style="fill:none;stroke:#000000;stroke-width:0.90000075"
       d="m 436.74839,842.32372 1e-5,-62.12614 -38.12603,0 0,10.3465 -47.19688,0 0,-10.3465 -28.98428,0 0,10.3465 -27.70868,0 0,-10.3465 -28.98428,0 0,10.3465 -27.70868,0 0,-10.3465 -28.98428,0 0,10.3465 -27.70868,0 0,-10.3465 -28.98428,0 0,10.3465 -27.70868,0 0,-10.3465 -28.98428,0 0,10.3465 -47.196889,0 0,-10.3465 -38.5760164,0 0.4500004,62.12614 z"
       id="polygon4545"
       inkscape:connector-curvature="0"
       sodipodi:nodetypes="ccccccccccccccccccccccccccccc" />
  </g>
  <g
     transform="translate(-1909.8784,53.036659)"
     id="g4556">
    <rect
       style="opacity:1;fill:none;fill-opacity:1;stroke:#000000;stroke-width:0.93350255;stroke-miterlimit:4;stroke-dasharray:none;stroke-opacity:1"
       id="rect4558"
       width="202.60115"
       height="99.845329"
       x="1930.2314"
       y="2070.9258" />
    <rect
       y="2086.7441"
       x="1942.5065"
       height="68.208664"
       width="178.05118"
       id="rect4560"
       style="opacity:1;fill:none;fill-opacity:1;stroke:#000000;stroke-width:0.90000075;stroke-miterlimit:4;stroke-dasharray:none;stroke-opacity:1" />
    <ellipse
       ry="3.6358595"
       rx="3.6358593"
       cy="2080.4365"
       cx="1955.0005"
       id="ellipse4562"
       style="opacity:1;fill:none;fill-opacity:1;stroke:#000000;stroke-width:0.90000081;stroke-miterlimit:4;stroke-dasharray:none;stroke-opacity:1" />
    <ellipse
       style="opacity:1;fill:none;fill-opacity:1;stroke:#000000;stroke-width:0.90000081;stroke-miterlimit:4;stroke-dasharray:none;stroke-opacity:1"
       id="ellipse4564"
       cx="2108.0645"
       cy="2080.4365"
       rx="3.6358593"
       ry="3.6358595" />
    <ellipse
       style="opacity:1;fill:none;fill-opacity:1;stroke:#000000;stroke-width:0.90000081;stroke-miterlimit:4;stroke-dasharray:none;stroke-opacity:1"
       id="ellipse4566"
       cx="1955.0005"
       cy="2161.2595"
       rx="3.6358402"
       ry="3.6358607" />
    <ellipse
       ry="3.6358607"
       rx="3.6358402"
       cy="2161.2595"
       cx="2108.0635"
       id="ellipse4568"
       style="opacity:1;fill:none;fill-opacity:1;stroke:#000000;stroke-width:0.90000081;stroke-miterlimit:4;stroke-dasharray:none;stroke-opacity:1" />
  </g>
</svg>
